<svg width="360" height="360" viewBox="0 0 360 360" fill="none" xmlns="http://www.w3.org/2000/svg">
<rect width="360" height="360" rx="25" fill="#225E37"/>
<path d="M139.53 140.262C135.727 137.358 132.057 134.241 128.089 131.59C119.817 126.106 110.389 122.635 100.553 121.453C90.2205 120.057 79.7057 121.509 70.129 125.652C64.6321 127.997 59.9638 131.528 55.7793 135.779C49.6751 141.992 45.084 149.079 42.6855 157.524C40.0554 166.791 40.3797 176.074 42.7833 185.301C45.6759 196.406 51.9037 205.228 61.1785 211.886C61.9746 212.501 62.838 213.022 63.7519 213.44C53.5456 205.368 47.2148 195.345 47.2869 181.93C47.3281 173.853 49.253 166.398 53.9161 159.667C63.1549 146.403 77.7362 141.189 90.3668 143.156C81.8434 143.871 74.3598 146.957 68.0651 152.833C61.8954 158.455 58.0873 166.231 57.4161 174.578C55.944 190.535 64.7762 202.686 74.2826 207.765C68.4923 200.973 65.2034 193.269 65.7747 184.239C66.346 175.21 70.1136 167.723 77.1752 161.976C76.5678 163.121 75.9399 164.249 75.3583 165.409C70.4996 175.054 70.7569 184.71 75.3583 194.345C77.7722 199.388 81.4265 203.002 87.0367 204.245C96.8159 206.398 105.669 198.254 105.473 189.857C105.365 185.124 107.249 182.23 111.073 180.708C109.529 184.56 112.246 187.439 113.132 190.695C116.148 201.63 114.285 211.545 107.316 220.434C102.266 226.88 95.5549 230.789 87.6492 232.43C82.486 233.433 77.1637 233.242 72.0848 231.871C59.3895 228.752 47.9946 221.687 39.5202 211.679C28.5726 198.824 24.0793 183.758 25.1551 166.936C25.8442 155.132 30.1221 143.825 37.4099 134.546C47.606 121.37 60.813 113.184 77.4016 110.73C90.6344 108.784 103.229 110.694 115.098 116.876C121.322 120.103 126.904 124.452 131.568 129.706C134.502 133.009 137.096 136.628 139.839 140.102L139.53 140.262Z" fill="#D7BD52"/>
<path d="M306.96 189.95C306.809 190.388 306.687 190.836 306.595 191.291C305.617 198.493 304.665 205.694 303.692 212.891C303.47 214.527 303.151 216.153 302.935 217.789C302.812 218.731 302.338 219.005 301.432 219C296.392 218.969 291.355 218.969 286.321 219C285.292 219 284.895 218.534 284.777 217.602C284.262 213.227 283.747 208.853 283.233 204.478C282.08 194.316 280.927 184.16 279.774 174.009C279.41 170.775 279.053 167.537 278.703 164.296C278.68 163.868 278.68 163.44 278.703 163.012C279.28 162.976 279.764 162.924 280.248 162.919C283.639 162.919 287.031 162.986 290.423 162.919C291.808 162.882 292.245 163.436 292.338 164.731C292.918 172.718 293.533 180.713 294.185 188.718C294.463 192.212 294.772 195.707 295.091 199.197C295.132 199.741 295.379 200.249 295.781 200.615C295.982 198.374 296.146 196.121 296.388 193.885C297.474 184.048 298.591 174.18 299.672 164.322C299.667 164.133 299.701 163.946 299.774 163.772C299.846 163.598 299.955 163.442 300.092 163.314C300.23 163.186 300.393 163.089 300.571 163.03C300.749 162.971 300.937 162.95 301.123 162.97C305.214 162.97 309.304 162.97 313.394 162.97C314.279 162.97 314.578 163.488 314.65 164.327C315.087 169.168 315.571 174.003 315.988 178.85C316.503 184.736 316.955 190.633 317.429 196.525C317.526 198.402 317.772 200.269 318.165 202.106C318.316 201.598 318.432 201.079 318.51 200.553C319.025 194.314 319.452 188.06 320.1 181.832C320.697 176.054 321.562 170.307 322.267 164.539C322.411 163.364 322.885 162.934 324.089 162.955C327.579 163.027 331.068 163.027 334.558 162.955C335.783 162.929 336.102 163.317 335.973 164.508C334.796 174.407 333.642 184.312 332.51 194.221C331.609 202.034 330.693 209.841 329.843 217.659C329.72 218.793 329.257 219.042 328.232 219.037C323.394 219 318.556 218.964 313.718 219.078C312.174 219.114 311.597 218.56 311.386 217.131C310.409 210.442 309.369 203.758 308.37 197.074C308.015 194.723 307.706 192.373 307.377 190.022L306.96 189.95Z" fill="#D7BD52"/>
<path d="M202.683 190.897C202.683 182.22 202.719 173.543 202.652 164.86C202.652 163.354 203.044 162.846 204.582 162.898C208.021 163.007 211.469 162.981 214.907 162.898C216.292 162.867 216.817 163.193 216.796 164.736C216.729 170.354 216.858 175.971 216.842 181.583C216.842 182.831 217.259 183.235 218.474 183.245C221.778 183.276 221.773 183.323 221.773 180.061C221.773 174.946 221.814 169.825 221.773 164.71C221.773 163.338 222.211 162.867 223.585 162.898C227.075 162.976 230.569 162.955 234.059 162.898C235.284 162.898 235.855 163.224 235.855 164.596C235.818 182.155 235.818 199.711 235.855 217.266C235.855 218.566 235.485 219.021 234.152 218.99C230.611 218.907 227.069 218.897 223.528 218.99C222.082 219.032 221.758 218.472 221.768 217.152C221.809 210.594 221.809 204.022 221.768 197.437C221.768 196.707 221.48 195.402 221.171 195.366C219.851 195.218 218.518 195.239 217.203 195.428C217.043 195.428 216.863 196.21 216.863 196.624C216.863 200.636 216.863 204.649 216.863 208.661C216.863 211.519 216.76 214.356 216.791 217.235C216.791 218.503 216.441 219.026 215.087 219C211.484 218.918 207.882 218.928 204.32 219C203.074 219 202.678 218.602 202.683 217.364C202.719 208.537 202.683 199.704 202.683 190.877V190.897Z" fill="#D7BD52"/>
<path d="M275.039 191.073C275.039 196.183 275.08 201.294 275.039 206.398C274.972 213.274 270.082 218.581 262.985 219.772C258.198 220.569 253.515 220.336 249.17 217.975C244.904 215.661 242.392 211.907 242.304 207.066C242.109 196.297 242.078 185.518 242.304 174.754C242.449 168.024 247.776 162.919 254.878 162.018C258.718 161.531 262.491 161.702 266.202 163.053C271.102 164.87 274.684 169.266 274.952 174.521C275.229 180.02 275.307 185.534 275.466 191.042L275.039 191.073ZM261.111 190.949C261.111 185.932 261.111 180.92 261.111 175.904C261.082 174.806 260.986 173.712 260.823 172.626C260.809 172.373 260.745 172.125 260.634 171.897C260.524 171.669 260.37 171.466 260.181 171.298C259.992 171.131 259.771 171.002 259.533 170.921C259.294 170.84 259.042 170.807 258.79 170.825C257.606 170.825 256.731 171.342 256.474 172.523C256.259 173.397 256.14 174.293 256.119 175.194C256.054 184.624 256.011 194.05 255.99 203.473C256.013 205.377 256.133 207.277 256.35 209.168C256.358 209.434 256.418 209.696 256.528 209.937C256.637 210.179 256.795 210.396 256.99 210.575C257.185 210.755 257.414 210.893 257.663 210.981C257.912 211.069 258.176 211.106 258.44 211.089C259.691 211.146 260.499 210.571 260.756 209.417C260.984 208.397 261.098 207.355 261.096 206.31C261.132 201.18 261.111 196.064 261.111 190.949Z" fill="#D7BD52"/>
<path d="M163.238 190.891C163.238 186.33 163.155 181.769 163.238 177.207C163.361 171.901 164.921 167.22 169.723 164.264C172.626 162.562 175.937 161.692 179.296 161.748C183.604 161.701 187.794 162.359 191.258 165.191C194.15 167.562 196.116 170.674 196.163 174.469C196.296 185.388 196.369 196.312 196.163 207.231C196.044 212.926 192.143 217.462 186.697 219.087C180.614 220.905 174.654 220.729 169.198 217.187C167.534 216.141 166.149 214.703 165.163 212.997C164.176 211.291 163.618 209.369 163.536 207.397C163.191 201.904 163.13 196.39 162.944 190.881L163.238 190.891ZM182.384 190.638H182.42C182.42 186.123 182.42 181.613 182.42 177.099C182.444 175.845 182.392 174.592 182.266 173.345C182.039 171.533 181.288 170.798 179.903 170.808C178.519 170.818 177.721 171.636 177.49 173.366C177.328 174.659 177.254 175.961 177.268 177.264C177.232 186.066 177.201 194.914 177.232 203.736C177.263 205.586 177.402 207.433 177.649 209.266C177.793 210.472 178.596 211.088 179.837 211.078C180.368 211.122 180.895 210.957 181.308 210.618C181.72 210.279 181.986 209.793 182.05 209.261C182.252 208.178 182.362 207.08 182.379 205.978C182.4 200.863 182.384 195.748 182.384 190.638Z" fill="#D7BD52"/>
<path d="M135.077 191.026C135.077 182.297 135.077 173.573 135.052 164.844C135.052 163.452 135.391 162.887 136.879 162.898C143.81 162.96 150.741 162.96 157.673 162.898C159.031 162.898 159.525 163.291 159.469 164.699C159.366 167.205 159.397 169.716 159.469 172.222C159.469 173.258 159.088 173.651 158.074 173.636C155.732 173.604 153.385 173.692 151.043 173.636C149.659 173.594 149.211 174.153 149.252 175.494C149.329 177.948 149.252 180.408 149.252 182.867C149.252 184.896 149.252 184.896 151.357 184.902C153.2 184.902 155.048 184.948 156.89 184.902C157.92 184.871 158.306 185.311 158.295 186.32C158.264 188.878 158.27 191.435 158.295 193.993C158.295 194.884 158.002 195.22 157.055 195.184C154.996 195.117 152.968 195.241 150.93 195.184C149.587 195.142 149.232 195.702 149.237 196.98C149.283 203.654 149.237 210.323 149.268 216.996C149.268 219.005 149.268 219.015 147.286 219.01C143.745 219.01 140.204 218.953 136.663 219.01C135.391 219.036 135.062 218.575 135.067 217.364C135.108 208.562 135.067 199.807 135.067 191.032L135.077 191.026Z" fill="#D7BD52"/>
<path d="M331.547 249.91H136.576C136.388 249.925 136.199 249.902 136.019 249.843C135.84 249.784 135.673 249.69 135.53 249.567C135.386 249.443 135.269 249.292 135.183 249.123C135.098 248.953 135.047 248.769 135.032 248.579V230.8C135.047 230.611 135.098 230.426 135.183 230.257C135.269 230.088 135.387 229.937 135.53 229.814C135.674 229.691 135.84 229.598 136.02 229.539C136.199 229.481 136.388 229.459 136.576 229.475H329.226C329.576 229.458 329.92 229.568 330.195 229.784C330.471 230.001 330.661 230.31 330.729 230.655L333.05 248.434C333.06 248.634 333.027 248.833 332.954 249.018C332.881 249.204 332.77 249.372 332.628 249.511C332.486 249.651 332.317 249.758 332.13 249.827C331.944 249.896 331.745 249.924 331.547 249.91Z" fill="#F9F7F2"/>
<path d="M148.296 242.165H146.577V246.602H143.221V233.503H149.742C152.629 233.503 154.271 235.429 154.271 237.862C154.315 238.708 154.088 239.545 153.625 240.252C153.162 240.959 152.487 241.498 151.698 241.792L154.354 246.602H150.483L148.296 242.165ZM149.232 236.351H146.577V239.296H149.232C149.437 239.318 149.644 239.295 149.84 239.231C150.036 239.167 150.216 239.062 150.369 238.923C150.522 238.784 150.644 238.614 150.728 238.425C150.812 238.236 150.855 238.031 150.855 237.823C150.855 237.616 150.812 237.411 150.728 237.222C150.644 237.033 150.522 236.863 150.369 236.724C150.216 236.585 150.036 236.48 149.84 236.416C149.644 236.352 149.437 236.329 149.232 236.351Z" fill="#225E37"/>
<path d="M159.053 233.503H162.47V241.181C162.47 242.734 163.289 243.853 165.106 243.853C166.922 243.853 167.72 242.734 167.72 241.181V233.503H171.138V241.269C171.138 244.531 169.285 246.83 165.106 246.83C160.926 246.83 159.053 244.51 159.053 241.29V233.503Z" fill="#225E37"/>
<path d="M187.83 237.764L184.556 246.602H183.074L179.796 237.764V246.602H176.435V233.503H181.103L183.815 240.927L186.548 233.503H191.217V246.602H187.856L187.83 237.764Z" fill="#225E37"/>
<path d="M204.799 244.634H199.389L198.725 246.617H195.076L199.997 233.503H204.212L209.132 246.602H205.483L204.799 244.634ZM200.269 241.787H203.919L202.081 236.464L200.269 241.787Z" fill="#225E37"/>
<path d="M221.763 241.342H216.354V246.602H212.998V233.503H216.354V238.421H221.763V233.503H225.119V246.602H221.763V241.342Z" fill="#225E37"/>
<path d="M239.16 242.221C240.264 243.328 241.759 243.95 243.318 243.95C244.471 243.95 245.171 243.458 245.171 242.831C245.171 242.086 244.332 241.796 242.948 241.496C240.796 241.066 237.801 240.512 237.801 237.411C237.801 235.21 239.659 233.305 242.994 233.305C244.92 233.249 246.8 233.899 248.285 235.133L246.453 237.551C245.413 236.702 244.122 236.225 242.783 236.194C241.666 236.194 241.239 236.644 241.239 237.23C241.239 237.918 242.037 238.151 243.483 238.426C245.629 238.881 248.599 239.508 248.599 242.474C248.599 245.104 246.664 246.854 243.169 246.854C240.534 246.854 238.702 246.031 237.389 244.783L239.16 242.221Z" fill="#225E37"/>
<path d="M253.077 233.503H262.625V236.351H256.448V238.53H262.501V241.398H256.438V243.754H262.614V246.602H253.077V233.503Z" fill="#225E37"/>
<path d="M276.274 241.342H270.865V246.602H267.504V233.503H270.865V238.421H276.274V233.503H279.63V246.602H276.274V241.342Z" fill="#225E37"/>
<path d="M293.238 244.633H287.829L287.165 246.616H283.516L288.416 233.518H292.641L297.562 246.616H293.912L293.238 244.633ZM288.709 241.786H292.358L290.526 236.464L288.709 241.786Z" fill="#225E37"/>
<path d="M303.136 236.449H299.487V233.503H310.141V236.449H306.512V246.602H303.151L303.136 236.449Z" fill="#225E37"/>
</svg>
